#N canvas 102 212 700 500 12;
#X obj 156 61 inlet;
#X obj 155 91 symbol;
#X obj 214 285 symbol;
#X msg 214 316 file \$1 does not exist. can't open it;
#X obj 228 346 print;
#X obj 138 412 outlet;
#X obj 224 413 outlet;
#X obj 154 119 t s s s;
#X obj 147 282 symbol;
#X obj 224 380 bang;
#X text 280 346 Do not print when file is not found. This can be normal;
#X obj 153 171 file isfile, f 15;
#X connect 0 0 1 0;
#X connect 1 0 7 0;
#X connect 2 0 3 0;
#X connect 3 0 4 0;
#X connect 7 0 11 0;
#X connect 7 1 8 1;
#X connect 7 2 2 1;
#X connect 8 0 5 0;
#X connect 9 0 6 0;
#X connect 11 0 8 0;
#X connect 11 1 2 0;
#X connect 11 1 9 0;
