#N canvas 639 103 826 782 12;
#X obj 80 110 i 0;
#X obj 81 505 dac~;
#X obj 80 138 sel 1;
#X obj 80 166 i 0;
#X obj 80 18 r tempo_click_bang;
#X obj 265 7 inlet;
#X obj 296 83 r tempo_quantif_bang;
#X msg 274 131 0;
#X obj 80 195 + 1;
#X obj 332 152 bng 15 250 50 0 empty empty empty 17 7 0 10 -262144
-1 -1;
#X obj 80 45 bng 15 250 50 0 empty empty empty 17 7 0 10 -262144 -1
-1;
#X obj 80 248 sel 1;
#X obj 91 476 *~ 0.4;
#X obj 598 366 soundfiler;
#N canvas 0 22 450 278 (subpatch) 0;
#X array metronome1 8820 float 2;
#X coords 0 1 8820 -1 100 70 1 0 0;
#X restore 498 430 graph;
#N canvas 0 22 450 278 (subpatch) 0;
#X array metronome2 8820 float 2;
#X coords 0 1 8820 -1 100 70 1 0 0;
#X restore 606 430 graph;
#X obj 151 354 bang;
#X obj 0 351 bang;
#X msg 598 322 read ../bip/hihat4.wav metronome2;
#X msg 567 292 read ../bip/hihat5.wav metronome1;
#X obj 0 376 tabplay~ metronome2;
#X obj 152 376 tabplay~ metronome1;
#X obj 152 326 r metronome1;
#X obj 0 326 r metronome2;
#X obj 572 217 loadbang;
#X obj 573 245 t b b;
#X obj 224 36 extra/sv metronome;
#X connect 0 0 2 0;
#X connect 2 0 3 0;
#X connect 3 0 8 0;
#X connect 4 0 10 0;
#X connect 5 0 26 1;
#X connect 6 0 7 0;
#X connect 6 0 9 0;
#X connect 7 0 3 1;
#X connect 8 0 3 1;
#X connect 8 0 11 0;
#X connect 10 0 0 0;
#X connect 11 0 17 0;
#X connect 11 1 16 0;
#X connect 12 0 1 1;
#X connect 12 0 1 0;
#X connect 16 0 21 0;
#X connect 17 0 20 0;
#X connect 18 0 13 0;
#X connect 19 0 13 0;
#X connect 20 0 12 0;
#X connect 21 0 12 0;
#X connect 22 0 16 0;
#X connect 23 0 17 0;
#X connect 24 0 25 0;
#X connect 25 0 19 0;
#X connect 25 1 18 0;
#X connect 26 0 0 1;
