#N canvas 131 166 450 300 12;
#X obj 161 66 inlet;
#X obj 161 96 bang;
#X obj 13 124 r tempo_quantif_bang;
#X msg 200 151 -1;
#X obj 142 151 i -1;
#X obj 142 175 sel -1;
#X msg 161 124 0;
#X text 257 67 when this block is bang;
#X text 257 83 output the nex quantif_bang once;
#X obj 142 217 outlet;
#X connect 0 0 1 0;
#X connect 1 0 6 0;
#X connect 2 0 4 0;
#X connect 3 0 4 1;
#X connect 4 0 3 0;
#X connect 4 0 5 0;
#X connect 5 1 9 0;
#X connect 6 0 4 1;
