#N canvas 823 251 450 300 12;
#X obj 122 125 i 0;
#X obj 191 100 sel 0 1;
#X obj 116 36 t b f f;
#X obj 363 130 i 0;
#X obj 116 11 inlet;
#X obj 122 176 outlet;
#X obj 364 176 outlet;
#X obj 96 76 extra/sv \$1;
#X text 46 178 NO;
#X text 291 178 YES;
#X connect 0 0 5 0;
#X connect 1 0 0 0;
#X connect 1 1 3 0;
#X connect 2 0 7 2;
#X connect 2 1 0 1;
#X connect 2 1 3 1;
#X connect 3 0 6 0;
#X connect 4 0 2 0;
#X connect 7 1 1 0;
