#N canvas 156 381 499 296 10;
#X obj 54 6 extra/sv \$1_\$2_state;
#X text 321 99 ACTUAL STATE;
#X obj 102 132 tgl 15 0 empty empty EMPTY 0 -5 0 8 -262144 -1 -1 0
1;
#X obj 131 132 tgl 15 0 empty empty W_REC 0 -5 0 8 -262144 -1 -1 0
1;
#X obj 159 132 tgl 15 0 empty empty REC 0 -5 0 8 -262144 -1 -1 0 1
;
#X obj 193 132 tgl 15 0 empty empty W_REC 0 -5 0 8 -262144 -1 -1 0
1;
#X obj 228 132 tgl 15 0 empty empty PLAY 0 -5 0 8 -262144 -1 -1 0 1
;
#X obj 260 132 tgl 15 0 empty empty W_STOP 0 -5 0 8 -262144 -1 -1 0
1;
#X obj 293 132 tgl 15 0 empty empty W_DUB 0 -5 0 8 -262144 -1 -1 0
1;
#X obj 322 132 tgl 15 0 empty empty STOP 0 -5 0 8 -262144 -1 -1 0 1
;
#X obj 352 132 tgl 15 0 empty empty W_PLAY 0 -5 0 8 -262144 -1 -1 0
1;
#X obj 384 132 tgl 15 0 empty empty DUB 0 -5 0 8 -262144 -1 -1 0 1
;
#X obj 109 172 sel 0 0.5 1 1.5 2 2.5 2.6 3 3.5 4;
#X obj 10 230 outlet;
#X obj 56 230 outlet;
#X obj 101 230 outlet;
#X obj 147 230 outlet;
#X obj 192 230 outlet;
#X obj 238 230 outlet;
#X obj 283 230 outlet;
#X obj 329 230 outlet;
#X obj 373 230 outlet;
#X obj 419 230 outlet;
#X obj 103 69 == 0;
#X obj 135 69 == 0.5;
#X obj 178 69 == 1;
#X obj 210 69 == 1.5;
#X obj 253 69 == 2;
#X obj 285 69 == 2.5;
#X obj 328 69 == 2.5;
#X obj 370 69 == 3;
#X obj 403 69 == 3.5;
#X obj 453 69 == 4;
#X connect 0 0 12 0;
#X connect 0 0 23 0;
#X connect 0 0 24 0;
#X connect 0 0 25 0;
#X connect 0 0 26 0;
#X connect 0 0 27 0;
#X connect 0 0 28 0;
#X connect 0 0 29 0;
#X connect 0 0 30 0;
#X connect 0 0 31 0;
#X connect 0 0 32 0;
#X connect 12 0 13 0;
#X connect 12 1 14 0;
#X connect 12 2 15 0;
#X connect 12 3 16 0;
#X connect 12 4 17 0;
#X connect 12 5 18 0;
#X connect 12 6 19 0;
#X connect 12 7 20 0;
#X connect 12 8 21 0;
#X connect 12 9 22 0;
#X connect 23 0 2 0;
#X connect 24 0 3 0;
#X connect 25 0 4 0;
#X connect 26 0 5 0;
#X connect 27 0 6 0;
#X connect 28 0 7 0;
#X connect 29 0 8 0;
#X connect 30 0 9 0;
#X connect 31 0 10 0;
#X connect 32 0 11 0;
#X coords 0 -1 1 1 300 50 1 100 100;
