#N canvas 381 451 669 391 10;
#X obj -30 8 extra/sv \$1_\$2_state;
#X obj -14 -46 inlet;
#X obj -14 -24 t b f;
#X obj -28 181 f;
#X obj 26 197 f;
#X obj 65 197 f;
#X obj 105 197 f;
#X obj 146 197 f;
#X obj 190 197 f;
#X text 321 90 ACTUAL STATE;
#X obj 102 123 tgl 15 0 empty empty EMPTY 0 -5 0 8 #fcfcfc #000000
#000000 0 1;
#X obj 131 123 tgl 15 0 empty empty W_REC 0 -5 0 8 #fcfcfc #000000
#000000 0 1;
#X obj 159 123 tgl 15 0 empty empty REC 0 -5 0 8 #fcfcfc #000000 #000000
0 1;
#X obj 187 123 tgl 15 0 empty empty W_ENDREC 0 -5 0 8 #fcfcfc #000000
#000000 0 1;
#X obj 228 123 tgl 15 0 empty empty PLAY 0 -5 0 8 #fcfcfc #000000 #000000
0 1;
#X obj 260 123 tgl 15 0 empty empty W_STOP 0 -5 0 8 #fcfcfc #000000
#000000 0 1;
#X obj 293 123 tgl 15 0 empty empty W_DUB 0 -5 0 8 #fcfcfc #000000
#000000 0 1;
#X obj 322 123 tgl 15 0 empty empty STOP 0 -5 0 8 #fcfcfc #000000 #000000
0 1;
#X obj 352 123 tgl 15 0 empty empty W_PLAY 0 -5 0 8 #fcfcfc #000000
#000000 0 1;
#X obj 384 123 tgl 15 0 empty empty DUB 0 -5 0 8 #fcfcfc #000000 #000000
0 1;
#X obj 10 221 outlet;
#X obj 56 221 outlet;
#X obj 101 221 outlet;
#X obj 147 221 outlet;
#X obj 192 221 outlet;
#X obj 238 221 outlet;
#X obj 283 221 outlet;
#X obj 329 221 outlet;
#X obj 373 221 outlet;
#X obj 419 221 outlet;
#X obj 103 60 == 0;
#X obj 135 60 == 0.5;
#X obj 178 60 == 1;
#X obj 210 60 == 1.5;
#X obj 253 60 == 2;
#X obj 285 60 == 2.5;
#X obj 328 60 == 2.5;
#X obj 370 60 == 3;
#X obj 403 60 == 3.5;
#X obj 453 60 == 4;
#X obj 407 123 tgl 15 0 empty empty CLEAR 0 -5 0 8 #fcfcfc #000000
#000000 0 1;
#X obj 486 60 == 5;
#X obj 466 221 outlet;
#X obj 240 197 f;
#X obj 282 197 f;
#X obj 329 197 f;
#X obj 373 197 f;
#X obj 421 197 f;
#X obj 467 197 f;
#X obj 435 123 tgl 15 0 empty empty FADE 0 -5 0 8 #fcfcfc #000000 #000000
0 1;
#X obj 526 60 == 6;
#X obj 76 152 sel 0 0.5 1 1.5 2 2.5 2.6 3 3.5 4 5 6;
#X obj 510 221 outlet;
#X obj 511 197 f;
#X connect 0 1 30 0;
#X connect 0 1 31 0;
#X connect 0 1 32 0;
#X connect 0 1 33 0;
#X connect 0 1 34 0;
#X connect 0 1 35 0;
#X connect 0 1 36 0;
#X connect 0 1 37 0;
#X connect 0 1 38 0;
#X connect 0 1 39 0;
#X connect 0 1 41 0;
#X connect 0 1 50 0;
#X connect 0 1 51 0;
#X connect 1 0 2 0;
#X connect 2 0 0 2;
#X connect 2 1 3 0;
#X connect 3 0 4 1;
#X connect 3 0 5 1;
#X connect 3 0 6 1;
#X connect 3 0 7 1;
#X connect 3 0 8 1;
#X connect 3 0 43 1;
#X connect 3 0 44 1;
#X connect 3 0 45 1;
#X connect 3 0 46 1;
#X connect 3 0 47 1;
#X connect 3 0 48 1;
#X connect 3 0 53 1;
#X connect 4 0 20 0;
#X connect 5 0 21 0;
#X connect 6 0 22 0;
#X connect 7 0 23 0;
#X connect 8 0 24 0;
#X connect 30 0 10 0;
#X connect 31 0 11 0;
#X connect 32 0 12 0;
#X connect 33 0 13 0;
#X connect 34 0 14 0;
#X connect 35 0 15 0;
#X connect 36 0 16 0;
#X connect 37 0 17 0;
#X connect 38 0 18 0;
#X connect 39 0 19 0;
#X connect 41 0 40 0;
#X connect 43 0 25 0;
#X connect 44 0 26 0;
#X connect 45 0 27 0;
#X connect 46 0 28 0;
#X connect 47 0 29 0;
#X connect 48 0 42 0;
#X connect 50 0 49 0;
#X connect 51 0 4 0;
#X connect 51 1 5 0;
#X connect 51 2 6 0;
#X connect 51 3 7 0;
#X connect 51 4 8 0;
#X connect 51 5 43 0;
#X connect 51 6 44 0;
#X connect 51 7 45 0;
#X connect 51 8 46 0;
#X connect 51 9 47 0;
#X connect 51 10 48 0;
#X connect 51 11 53 0;
#X connect 53 0 52 0;
#X coords 0 -1 1 1 355 40 1 100 100;
