#N canvas 704 170 808 670 12;
#X declare -path ../;
#N canvas 356 178 697 443 saveTempoToFile 1;
#X obj 24 54 i 0;
#X msg 421 218 add2 \$1;
#X msg 511 217 clear;
#X obj 23 85 t b b f b;
#X obj 142 311 textfile;
#X obj 24 24 inlet;
#X obj 23 188 pack 0 s f;
#X obj 51 137 r lucibox_path;
#X msg 23 213 write \$2/samples/\$3/tempo.txt;
#X obj 81 162 extra/sv song;
#X connect 0 0 3 0;
#X connect 1 0 4 0;
#X connect 2 0 4 0;
#X connect 3 0 6 0;
#X connect 3 2 1 0;
#X connect 3 3 2 0;
#X connect 5 0 0 0;
#X connect 6 0 8 0;
#X connect 7 0 6 1;
#X connect 8 0 4 0;
#X connect 9 0 6 2;
#X restore 177 385 pd saveTempoToFile;
#X obj 145 332 f 0;
#X obj 390 239 r loadsong;
#X text 149 130 save a song;
#X text 388 212 load a song;
#X obj 442 289 extra/sv song;
#N canvas 882 228 470 409 changeTempoFromSong 0;
#X msg 140 143 rewind;
#X msg 80 143 bang;
#X obj 160 193 textfile;
#X obj 160 216 unpack f;
#X obj 146 -91 inlet;
#X obj 160 274 s tempo_fromSong;
#X floatatom 123 274 5 0 0 0 - - - 0;
#X obj 160 248 / 100;
#X obj 146 -30 pack 0 s f;
#X obj 183 -74 r lucibox_path;
#X msg 146 -8 \$2/samples/\$3/tempo.txt;
#X obj 146 18 extra/check_file_exist;
#X obj 146 103 t b b s;
#X msg 193 141 read \$1;
#X obj 275 62 s tempo_fromSong;
#X msg 275 41 500;
#X obj 144 -64 t b f;
#X connect 0 0 2 0;
#X connect 1 0 2 0;
#X connect 2 0 3 0;
#X connect 3 0 7 0;
#X connect 4 0 16 0;
#X connect 7 0 5 0;
#X connect 7 0 6 0;
#X connect 8 0 10 0;
#X connect 9 0 8 1;
#X connect 10 0 11 0;
#X connect 11 0 12 0;
#X connect 11 1 15 0;
#X connect 12 0 1 0;
#X connect 12 1 0 0;
#X connect 12 2 13 0;
#X connect 13 0 2 0;
#X connect 15 0 14 0;
#X connect 16 0 8 0;
#X connect 16 1 8 2;
#X restore 465 339 pd changeTempoFromSong;
#X obj 417 377 s tempoStopIn;
#X msg 396 357 4;
#X obj 380 403 extra/sv quantif_global;
#X obj 144 165 r save_song;
#X obj 160 305 * 100;
#X obj 436 315 t f f;
#X obj 145 358 t f f;
#X obj 360 423 s loadfilessong;
#X obj 390 264 t b b b b;
#N canvas 658 90 568 347 changePresetFromSong 0;
#X obj 163 -30 inlet;
#X obj 164 165 preset.storage;
#X obj 163 -5 i 0;
#X msg 164 139 load;
#X obj 164 24 pack 0 s f;
#X obj 192 -1 r lucibox_path;
#X obj 164 72 extra/check_file_exist;
#X msg 199 140 read \$1;
#X obj 164 115 t b s;
#X msg 164 48 \$2/samples/\$1/preset.txt;
#X connect 0 0 2 0;
#X connect 2 0 4 0;
#X connect 3 0 1 0;
#X connect 4 0 9 0;
#X connect 5 0 4 1;
#X connect 6 0 8 0;
#X connect 7 0 1 0;
#X connect 8 0 3 0;
#X connect 8 1 7 0;
#X connect 9 0 6 0;
#X restore 436 359 pd changePresetFromSong;
#N canvas 710 268 550 373 savePresetToFile 0;
#X obj 146 103 pack 0 s f;
#X obj 146 160 preset.storage;
#X obj 146 -32 inlet;
#X obj 289 170 print presetFile;
#X obj 203 84 extra/sv song;
#X obj 146 14 t b b b;
#X obj 146 -9 bang;
#X msg 185 40 store;
#X obj 174 65 r lucibox_path;
#X msg 146 123 write \$2/samples/\$3/preset.txt;
#X connect 0 0 9 0;
#X connect 2 0 6 0;
#X connect 4 0 0 2;
#X connect 5 0 0 0;
#X connect 5 2 7 0;
#X connect 6 0 5 0;
#X connect 7 0 1 0;
#X connect 8 0 0 1;
#X connect 9 0 1 0;
#X connect 9 0 3 0;
#X restore 145 437 pd savePresetToFile;
#X obj 134 36 declare -path ../;
#X obj 163 241 extra/sv tempo;
#X obj 144 203 t b b;
#X connect 1 0 13 0;
#X connect 2 0 15 0;
#X connect 5 1 12 0;
#X connect 8 0 9 1;
#X connect 10 0 20 0;
#X connect 11 0 1 1;
#X connect 12 0 16 0;
#X connect 12 1 6 0;
#X connect 13 0 17 0;
#X connect 13 1 0 0;
#X connect 15 0 14 0;
#X connect 15 1 8 0;
#X connect 15 2 7 0;
#X connect 15 3 5 2;
#X connect 19 1 11 0;
#X connect 20 0 1 0;
#X connect 20 1 19 2;
