#N canvas 665 360 450 300 12;
#X obj 149 96 s bela_setDigital;
#X obj 149 42 loadbang;
#X msg 149 69 in 11 \, in 12 \, in 13 \, in 14 \, in 15 \, in 16;
#X msg 452 69 in 17 \, in 18 \, in 19 \, in 20 \, in 21 \, in 22;
#X msg 752 68 out 24 \, out 25 \, out 26;
#X connect 1 0 2 0;
#X connect 1 0 3 0;
#X connect 1 0 4 0;
#X connect 2 0 0 0;
#X connect 3 0 0 0;
#X connect 4 0 0 0;
