#N canvas 369 62 996 753 12;
#X declare -path patches;
#X obj 100 101 cnv 15 800 81 empty empty LUCIBOX 20 36 0 45 #144050 #548ca0 0;
#N canvas 311 199 1201 624 patch 1;
#X obj 101 101 cnv 15 138 40 empty empty PATCH 20 12 0 14 #404040 #fcfcfc 0;
#X obj 250 -132 audio/mic;
#X obj 250 -159 adc~;
#X obj 270 779 dac~;
#X obj 38 100 bng 35 250 50 0 empty empty CLOSE 4 20 0 10 #fcfcfc #000000 #000000;
#X msg 38 164 \; pd-patch vis 0;
#N canvas 447 412 1038 529 open 0;
#X text 462 314 label-color;
#X text 477 339 label-color;
#X obj 377 311 t b f;
#X msg 400 277 2;
#X obj 466 220 loadbang;
#X obj 104 101 hradio 15 1 0 2 empty empty empty 0 -8 0 10 #fcfcfc #000000 #000000 0;
#X obj 104 166 bang;
#X msg 363 277 43;
#X obj 101 101 cnv 15 38 15 empty \$0_opencnv open 6 8 0 10 #404040 #fcfcfc 0;
#X msg 405 398 \; \$4_opencnv color \$1 \$2 \$3;
#X obj 363 197 bang;
#X obj 404 365 pack 43 0 0 \$0;
#X obj 400 220 delay 200;
#X msg 101 247 \; pd-patch vis 1;
#X msg 614 289 \; pd-patch vis 0;
#X connect 2 1 11 0;
#X connect 3 0 2 0;
#X connect 4 0 3 0;
#X connect 4 0 14 0;
#X connect 5 0 6 0;
#X connect 6 0 10 0;
#X connect 6 0 13 0;
#X connect 7 0 2 0;
#X connect 10 0 7 0;
#X connect 10 0 12 0;
#X connect 11 0 9 0;
#X connect 12 0 3 0;
#X coords 0 -1 1 1 40 17 2 100 100;
#X restore 177 107 pd open;
#X text 21 359 Manage Reset when;
#X text 21 405 no module selected and long press;
#N canvas 692 284 715 524 autostop_from_loop 0;
#X obj 155 39 extra/sv 1_1_is_loop_playing;
#X obj 188 62 extra/sv 2_1_is_loop_playing;
#X obj 215 85 extra/sv 3_1_is_loop_playing;
#X obj 232 107 extra/sv 4_1_is_loop_playing;
#X obj 162 195 extra/sv 1_1_is_loop_playing;
#X obj 142 220 extra/sv 2_1_is_loop_playing;
#X obj 122 241 extra/sv 3_1_is_loop_playing;
#X obj 102 264 extra/sv 4_1_is_loop_playing;
#X obj 217 151 bng 15 250 50 0 empty empty empty 17 7 0 10 #fcfcfc #000000 #000000;
#X obj 230 171 t b b b b;
#X obj 337 241 +;
#X obj 319 266 +;
#X obj 301 289 +;
#X floatatom 301 309 5 0 0 0 - - - 0;
#X obj 301 345 sel 0;
#X obj 469 239 print loop1;
#X obj 468 269 print loop2;
#X obj 469 299 print loop3;
#X obj 469 329 print loop4;
#X obj 469 109 print playloop1;
#X obj 468 139 print playloop2;
#X obj 469 169 print playloop3;
#X obj 469 199 print playloop4;
#X text 454 40 This patch stop the global player \, if all looper are stop;
#X text 49 346 De-activate with ableton link;
#X obj 244 425 extra/sv tempo_isplaying;
#X text 311 469 Change on tempo;
#X msg 300 396 0;
#X connect 0 0 8 0;
#X connect 1 0 8 0;
#X connect 2 0 8 0;
#X connect 3 0 8 0;
#X connect 4 1 10 1;
#X connect 5 1 10 0;
#X connect 6 1 11 0;
#X connect 7 1 12 0;
#X connect 8 0 9 0;
#X connect 9 0 7 2;
#X connect 9 1 6 2;
#X connect 9 2 5 2;
#X connect 9 3 4 2;
#X connect 10 0 11 1;
#X connect 11 0 12 1;
#X connect 12 0 13 0;
#X connect 13 0 14 0;
#X connect 14 0 27 0;
#X connect 27 0 25 1;
#X restore 22 382 pd autostop_from_loop;
#X obj 271 224 *~ 1;
#N canvas 612 223 783 487 global_play_delete 0;
#N canvas 293 165 623 468 longORshort 0;
#X obj 153 75 inlet;
#X obj 152 180 timer;
#X obj 153 119 sel 0;
#X obj 187 149 bang;
#X obj 151 224 > 500;
#X obj 151 298 bng 15 250 50 0 empty empty empty 17 7 0 10 #fcfcfc #000000 #000000;
#X obj 151 419 outlet;
#X obj 223 417 outlet;
#X obj 380 102 sel 0;
#X obj 398 239 i 0;
#X obj 398 270 sel 0;
#X obj 431 312 bng 15 250 50 0 empty empty empty 17 7 0 10 #fcfcfc #000000 #000000;
#X obj 182 296 bng 15 250 50 0 empty empty empty 17 7 0 10 #fcfcfc #000000 #000000;
#X obj 398 310 bng 15 250 50 0 empty empty empty 17 7 0 10 #fcfcfc #000000 #000000;
#X obj 151 256 sel 0 1;
#X obj 451 234 bng 15 250 50 0 empty empty empty 17 7 0 10 #fcfcfc #000000 #000000;
#X obj 458 160 bng 15 250 50 0 empty empty empty 17 7 0 10 #fcfcfc #000000 #000000;
#X obj 444 196 delay 1000;
#X connect 0 0 2 0;
#X connect 0 0 8 0;
#X connect 0 0 9 1;
#X connect 1 0 4 0;
#X connect 2 0 1 1;
#X connect 2 1 3 0;
#X connect 3 0 1 0;
#X connect 4 0 14 0;
#X connect 5 0 6 0;
#X connect 8 1 16 0;
#X connect 9 0 10 0;
#X connect 10 0 13 0;
#X connect 10 1 11 0;
#X connect 11 0 7 0;
#X connect 14 0 5 0;
#X connect 14 1 12 0;
#X connect 16 0 17 0;
#X connect 17 0 9 0;
#X connect 17 0 15 0;
#X restore 143 115 pd longORshort;
#X obj 143 85 extra/sv global_play;
#X obj 306 178 extra/sv tempo_isplaying;
#X msg 262 153 0;
#X obj 173 168 bang;
#X obj 173 214 s bigReset;
#X obj 217 137 t b b;
#X obj 280 132 bng 15 250 50 0 empty empty empty 17 7 0 10 #fcfcfc #000000 #000000;
#X obj -2 194 extra/sv tempo_isplaying;
#X msg 312 153 1;
#X obj 31 126 bng 19 250 50 0 empty empty empty 0 -10 0 12 #fcfcfc #000000 #000000;
#X msg 259 179 clear;
#X obj 304 205 s 1_1_action;
#X obj 303 228 s 2_1_action;
#X obj 302 253 s 3_1_action;
#X obj 302 280 s 4_1_action;
#X obj 187 6 r osc_in;
#X obj 187 31 route global;
#X obj 187 55 route play;
#X floatatom 62 80 5 0 0 0 - - - 0;
#X connect 0 0 8 0;
#X connect 0 1 6 0;
#X connect 0 1 7 0;
#X connect 1 0 0 0;
#X connect 3 0 11 0;
#X connect 4 0 5 0;
#X connect 6 0 4 0;
#X connect 6 1 3 0;
#X connect 6 1 9 0;
#X connect 9 0 2 1;
#X connect 10 0 8 0;
#X connect 11 0 12 0;
#X connect 11 0 13 0;
#X connect 11 0 14 0;
#X connect 11 0 15 0;
#X connect 16 0 17 0;
#X connect 17 0 18 0;
#X connect 18 0 1 1;
#X connect 18 0 19 0;
#X restore 22 426 pd global_play_delete;
#X obj 57 51 declare -path patches;
#X obj 363 271 clone -s 1 audio/loop 3 1 1 1 1 0;
#X obj 459 460 extra/sv reverb_drywet;
#X obj 488 606 loadbang;
#X obj 439 691 *~;
#X obj 438 657 effect/reverb1~;
#N canvas 110 143 450 300 scale 0;
#X obj 157 22 inlet;
#X obj 159 256 outlet;
#X floatatom 222 294 5 0 0 0 - - - 0;
#X obj 155 67 / 20;
#X obj 156 116 + 55;
#X connect 0 0 3 0;
#X connect 3 0 4 0;
#X connect 4 0 1 0;
#X restore 459 486 pd scale;
#X obj 263 683 *~ 1;
#X obj 540 629 bng 19 250 50 0 empty empty empty 0 -10 0 12 #fcfcfc #000000 #000000;
#X obj 23 334 audio/tempo \$1;
#N canvas 92 130 739 696 save_utils 0;
#X symbolatom 115 281 44 0 0 0 - - - 0;
#X obj 87 251 file patchpath;
#X text 75 167 get the directory this patch is in;
#X floatatom 88 223 5 0 0 0 - - - 0;
#X obj 47 168 bng 20 250 50 0 empty empty empty -35 10 0 10 #dfdfdf #000000 #000000;
#X obj 88 302 s lucibox_path;
#X obj 47 136 loadbang;
#X obj -24 273 extra/sv song;
#X msg 4 246 0;
#X connect 1 0 0 0;
#X connect 1 0 5 0;
#X connect 3 0 1 0;
#X connect 4 0 1 0;
#X connect 4 0 8 0;
#X connect 6 0 4 0;
#X connect 8 0 7 1;
#X restore 21 452 pd save_utils;
#X obj 21 484 osc/global_osc;
#X obj 116 517 bng 19 250 50 0 empty empty empty 0 -10 0 12 #fcfcfc #000000 #000000;
#X obj 21 516 tgl 19 0 empty empty empty 0 -10 0 12 #fcfcfc #000000 #000000 0 1;
#X obj 609 272 clone -s 1 osc/loop_osc 3 1 1 1 1 0;
#N canvas 382 118 588 601 tempo_to_stripled 0;
#X obj 96 161 tgl 19 0 empty empty empty 0 -10 0 12 #fcfcfc #000000 #000000 0 1;
#X obj 96 347 oscformat -f iii /lucibox/led/strip/looper;
#X obj 96 258 hradio 19 1 0 8 empty empty empty 0 -10 0 12 #fcfcfc #000000 #000000 0;
#X obj 96 376 s osc_out;
#X obj 96 199 sel 0;
#X msg 96 227 0;
#X obj 96 10 r tempo_click_bang;
#X obj 279 4 r tempo_quantif_bang;
#X obj 96 36 t b b;
#X obj 135 81 delay 30;
#X msg 134 119 0;
#X msg 96 79 1;
#X obj 280 159 tgl 19 0 empty empty empty 0 -10 0 12 #fcfcfc #000000 #000000 0 1;
#X obj 280 256 hradio 19 1 0 8 empty empty empty 0 -10 0 12 #fcfcfc #000000 #000000 0;
#X obj 280 197 sel 0;
#X msg 280 225 0;
#X obj 280 34 t b b;
#X obj 319 79 delay 30;
#X msg 318 117 0;
#X msg 280 77 1;
#X msg 313 226 5;
#X obj 96 285 t b f;
#X obj 280 283 t b f;
#X obj 97 314 pack 4 1 f;
#X obj 281 312 pack 4 2 f;
#X msg 129 228 5;
#X obj 431 110 loadbang;
#X msg 420 154 7;
#X connect 0 0 4 0;
#X connect 1 0 3 0;
#X connect 2 0 21 0;
#X connect 4 0 5 0;
#X connect 4 1 25 0;
#X connect 5 0 2 0;
#X connect 6 0 8 0;
#X connect 7 0 16 0;
#X connect 8 0 11 0;
#X connect 8 1 9 0;
#X connect 9 0 10 0;
#X connect 10 0 0 0;
#X connect 11 0 0 0;
#X connect 12 0 14 0;
#X connect 13 0 22 0;
#X connect 14 0 15 0;
#X connect 14 1 20 0;
#X connect 15 0 13 0;
#X connect 16 0 19 0;
#X connect 16 1 17 0;
#X connect 17 0 18 0;
#X connect 18 0 12 0;
#X connect 19 0 12 0;
#X connect 20 0 13 0;
#X connect 21 0 23 0;
#X connect 21 1 23 2;
#X connect 22 0 24 0;
#X connect 22 1 24 2;
#X connect 23 0 1 0;
#X connect 24 0 1 0;
#X connect 25 0 2 0;
#X connect 26 0 27 0;
#X connect 27 0 13 0;
#X restore 21 548 pd tempo_to_stripled;
#X floatatom 768 50 5 0 0 0 - - - 0;
#N canvas 411 449 450 300 delay_osc 0;
#X obj 165 67 r osc_in;
#X obj 115 109 bng 19 250 50 0 empty empty empty 0 -10 0 12 #fcfcfc #000000 #000000;
#X obj 166 243 outlet;
#X obj 166 148 route delay;
#X obj 226 243 outlet;
#X obj 165 178 route feedback drywet;
#X connect 0 0 1 0;
#X connect 0 0 3 0;
#X connect 3 0 5 0;
#X connect 5 0 2 0;
#X connect 5 1 4 0;
#X restore 768 22 pd delay_osc;
#X floatatom 848 50 5 0 0 0 - - - 0;
#N canvas 411 449 450 300 reverb_osc 0;
#X obj 165 67 r osc_in;
#X obj 115 109 bng 19 250 50 0 empty empty empty 0 -10 0 12 #fcfcfc #000000 #000000;
#X obj 166 243 outlet;
#X obj 165 178 route drywet;
#X obj 166 148 route reverb;
#X connect 0 0 1 0;
#X connect 0 0 4 0;
#X connect 3 0 2 0;
#X connect 4 0 3 0;
#X restore 511 419 pd reverb_osc;
#X obj 689 78 effect/delay;
#X obj 689 117 *~;
#X obj 732 -5 loadbang;
#X msg 488 630 66;
#X floatatom 494 555 18 0 0 0 - - - 0;
#X obj 461 519 dbtorms;
#X floatatom 652 484 5 0 0 0 - - - 0;
#X floatatom 549 525 5 0 0 0 - - - 0;
#X msg 731 19 1;
#N canvas 110 143 450 300 scale 0;
#X obj 157 22 inlet;
#X obj 159 256 outlet;
#X floatatom 222 294 5 0 0 0 - - - 0;
#X obj 156 116 + 55;
#X obj 155 67 / 22;
#X connect 0 0 4 0;
#X connect 3 0 1 0;
#X connect 4 0 3 0;
#X restore 848 75 pd scale;
#X obj 848 100 dbtorms;
#X floatatom 829 153 5 0 0 0 - - - 0;
#N canvas 915 355 450 300 reverbin_osc 0;
#X obj 165 67 r osc_in;
#X obj 115 109 bng 19 250 50 0 empty empty empty 0 -10 0 12 #fcfcfc #000000 #000000;
#X obj 166 243 outlet;
#X obj 165 178 route drywet;
#X obj 166 148 route octaver;
#X connect 0 0 1 0;
#X connect 0 0 4 0;
#X connect 3 0 2 0;
#X connect 4 0 3 0;
#X restore 489 -167 pd reverbin_osc;
#X obj 414 82 loadbang;
#X obj 363 164 *~;
#X obj 364 133 effect/reverb1~;
#N canvas 110 143 450 300 scale 0;
#X obj 157 22 inlet;
#X obj 159 256 outlet;
#X floatatom 222 294 5 0 0 0 - - - 0;
#X obj 155 67 / 20;
#X obj 156 116 + 55;
#X connect 0 0 3 0;
#X connect 3 0 4 0;
#X connect 4 0 1 0;
#X restore 379 20 pd scale;
#X obj 466 105 bng 19 250 50 0 empty empty empty 0 -10 0 12 #fcfcfc #000000 #000000;
#X msg 414 106 66;
#X obj 381 53 dbtorms;
#X floatatom 512 25 5 0 0 0 - - - 0;
#X obj 304 476 *~ 1;
#X obj 379 -6 extra/sv reverbin_drywet;
#X connect 1 1 32 0;
#X connect 1 1 47 0;
#X connect 1 1 10 0;
#X connect 2 0 1 0;
#X connect 2 1 1 0;
#X connect 4 0 5 0;
#X connect 10 0 13 0;
#X connect 10 0 19 0;
#X connect 13 0 53 0;
#X connect 14 0 18 0;
#X connect 14 0 38 0;
#X connect 15 0 35 0;
#X connect 16 0 3 0;
#X connect 16 0 3 1;
#X connect 17 0 16 0;
#X connect 18 0 37 0;
#X connect 19 0 3 0;
#X connect 19 0 3 1;
#X connect 20 0 17 2;
#X connect 23 0 25 0;
#X connect 23 1 24 0;
#X connect 28 0 32 2;
#X connect 29 0 28 0;
#X connect 29 1 30 0;
#X connect 30 0 41 0;
#X connect 31 0 14 1;
#X connect 32 0 33 0;
#X connect 33 0 10 0;
#X connect 34 0 40 0;
#X connect 35 0 17 1;
#X connect 37 0 16 1;
#X connect 37 0 36 0;
#X connect 39 0 37 0;
#X connect 40 0 32 1;
#X connect 41 0 42 0;
#X connect 42 0 33 1;
#X connect 42 0 43 0;
#X connect 44 0 54 1;
#X connect 45 0 50 0;
#X connect 46 0 10 0;
#X connect 47 0 46 0;
#X connect 48 0 51 0;
#X connect 49 0 47 2;
#X connect 50 0 47 1;
#X connect 51 0 46 1;
#X connect 52 0 51 0;
#X connect 53 0 19 0;
#X connect 53 0 17 0;
#X connect 54 0 48 0;
#X coords 0 -1 1 1 140 42 2 100 100;
#X restore 317 118 pd patch;
#X coords 0 -1 1 1 800 83 1 100 100;
