#N canvas 369 62 996 753 12;
#X declare -path patches;
#X obj 100 101 cnv 15 800 81 empty empty LUCIBOX 20 36 0 45 #144050 #548ca0 0;
#N canvas 0 38 899 796 patch 1;
#X obj 101 101 cnv 15 138 40 empty empty PATCH 20 12 0 14 #404040 #fcfcfc 0;
#X obj 250 -2 audio/mic;
#X obj 250 -29 adc~;
#X obj 270 779 dac~;
#X obj 38 100 bng 35 250 50 0 empty empty CLOSE 4 20 0 10 #fcfcfc #000000 #000000;
#X msg 38 164 \; pd-patch vis 0;
#N canvas 447 412 1038 529 open 0;
#X text 462 314 label-color;
#X text 477 339 label-color;
#X obj 377 311 t b f;
#X msg 400 277 2;
#X obj 466 220 loadbang;
#X obj 104 101 hradio 15 1 0 2 empty empty empty 0 -8 0 10 #fcfcfc #000000 #000000 0;
#X obj 104 166 bang;
#X msg 363 277 43;
#X obj 101 101 cnv 15 38 15 empty \$0_opencnv open 6 8 0 10 #404040 #fcfcfc 0;
#X msg 405 398 \; \$4_opencnv color \$1 \$2 \$3;
#X obj 363 197 bang;
#X obj 404 365 pack 43 0 0 \$0;
#X obj 400 220 delay 200;
#X msg 101 247 \; pd-patch vis 1;
#X msg 614 289 \; pd-patch vis 0;
#X connect 2 1 11 0;
#X connect 3 0 2 0;
#X connect 4 0 3 0;
#X connect 4 0 14 0;
#X connect 5 0 6 0;
#X connect 6 0 10 0;
#X connect 6 0 13 0;
#X connect 7 0 2 0;
#X connect 10 0 7 0;
#X connect 10 0 12 0;
#X connect 11 0 9 0;
#X connect 12 0 3 0;
#X coords 0 -1 1 1 40 17 2 100 100;
#X restore 177 107 pd open;
#X text 21 359 Manage Reset when;
#X text 21 405 no module selected and long press;
#X obj 267 478 *~ 1;
#N canvas 692 284 715 524 autostop_from_loop 0;
#X obj 155 39 extra/sv 1_1_is_loop_playing;
#X obj 188 62 extra/sv 2_1_is_loop_playing;
#X obj 215 85 extra/sv 3_1_is_loop_playing;
#X obj 232 107 extra/sv 4_1_is_loop_playing;
#X obj 162 195 extra/sv 1_1_is_loop_playing;
#X obj 142 220 extra/sv 2_1_is_loop_playing;
#X obj 122 241 extra/sv 3_1_is_loop_playing;
#X obj 102 264 extra/sv 4_1_is_loop_playing;
#X obj 217 151 bng 15 250 50 0 empty empty empty 17 7 0 10 #fcfcfc #000000 #000000;
#X obj 230 171 t b b b b;
#X obj 337 241 +;
#X obj 319 266 +;
#X obj 301 289 +;
#X floatatom 301 309 5 0 0 0 - - - 0;
#X obj 301 345 sel 0;
#X obj 469 239 print loop1;
#X obj 468 269 print loop2;
#X obj 469 299 print loop3;
#X obj 469 329 print loop4;
#X obj 469 109 print playloop1;
#X obj 468 139 print playloop2;
#X obj 469 169 print playloop3;
#X obj 469 199 print playloop4;
#X text 454 40 This patch stop the global player \, if all looper are stop;
#X text 49 346 De-activate with ableton link;
#X obj 244 425 extra/sv tempo_isplaying;
#X text 311 469 Change on tempo;
#X msg 300 396 0;
#X connect 0 0 8 0;
#X connect 1 0 8 0;
#X connect 2 0 8 0;
#X connect 3 0 8 0;
#X connect 4 1 10 1;
#X connect 5 1 10 0;
#X connect 6 1 11 0;
#X connect 7 1 12 0;
#X connect 8 0 9 0;
#X connect 9 0 7 2;
#X connect 9 1 6 2;
#X connect 9 2 5 2;
#X connect 9 3 4 2;
#X connect 10 0 11 1;
#X connect 11 0 12 1;
#X connect 12 0 13 0;
#X connect 13 0 14 0;
#X connect 14 0 27 0;
#X connect 27 0 25 1;
#X restore 22 382 pd autostop_from_loop;
#X obj 271 224 *~ 1;
#N canvas 104 71 783 487 global_play_delete 0;
#N canvas 293 165 623 468 longORshort 0;
#X obj 153 75 inlet;
#X obj 152 180 timer;
#X obj 153 119 sel 0;
#X obj 187 149 bang;
#X obj 151 224 > 500;
#X obj 151 298 bng 15 250 50 0 empty empty empty 17 7 0 10 #fcfcfc #000000 #000000;
#X obj 151 419 outlet;
#X obj 223 417 outlet;
#X obj 380 102 sel 0;
#X obj 398 239 i 0;
#X obj 398 270 sel 0;
#X obj 431 312 bng 15 250 50 0 empty empty empty 17 7 0 10 #fcfcfc #000000 #000000;
#X obj 182 296 bng 15 250 50 0 empty empty empty 17 7 0 10 #fcfcfc #000000 #000000;
#X obj 398 310 bng 15 250 50 0 empty empty empty 17 7 0 10 #fcfcfc #000000 #000000;
#X obj 151 256 sel 0 1;
#X obj 451 234 bng 15 250 50 0 empty empty empty 17 7 0 10 #fcfcfc #000000 #000000;
#X obj 458 160 bng 15 250 50 0 empty empty empty 17 7 0 10 #fcfcfc #000000 #000000;
#X obj 444 196 delay 1000;
#X connect 0 0 2 0;
#X connect 0 0 8 0;
#X connect 0 0 9 1;
#X connect 1 0 4 0;
#X connect 2 0 1 1;
#X connect 2 1 3 0;
#X connect 3 0 1 0;
#X connect 4 0 14 0;
#X connect 5 0 6 0;
#X connect 8 1 16 0;
#X connect 9 0 10 0;
#X connect 10 0 13 0;
#X connect 10 1 11 0;
#X connect 11 0 7 0;
#X connect 14 0 5 0;
#X connect 14 1 12 0;
#X connect 16 0 17 0;
#X connect 17 0 9 0;
#X connect 17 0 15 0;
#X restore 143 115 pd longORshort;
#X obj 176 35 extra/sv module_selected;
#X obj 143 85 spigot;
#X obj 143 15 extra/sv global_play;
#X obj 176 58 == 0;
#X obj 306 178 extra/sv tempo_isplaying;
#X msg 262 153 0;
#X obj 173 168 bang;
#X obj 173 214 s bigReset;
#X obj 217 137 t b b;
#X obj 280 132 bng 15 250 50 0 empty empty empty 17 7 0 10 #fcfcfc #000000 #000000;
#X obj -2 194 extra/sv tempo_isplaying;
#X msg 312 153 1;
#X obj 31 126 bng 19 250 50 0 empty empty empty 0 -10 0 12 #fcfcfc #000000 #000000;
#X msg 259 179 clear;
#X obj 304 205 s 1_1_action;
#X obj 303 228 s 2_1_action;
#X obj 302 253 s 3_1_action;
#X obj 302 280 s 4_1_action;
#X connect 0 0 11 0;
#X connect 0 1 9 0;
#X connect 0 1 10 0;
#X connect 1 0 4 0;
#X connect 2 0 0 0;
#X connect 3 0 2 0;
#X connect 4 0 2 1;
#X connect 6 0 14 0;
#X connect 7 0 8 0;
#X connect 9 0 7 0;
#X connect 9 1 6 0;
#X connect 9 1 12 0;
#X connect 12 0 5 1;
#X connect 13 0 11 0;
#X connect 14 0 15 0;
#X connect 14 0 16 0;
#X connect 14 0 17 0;
#X connect 14 0 18 0;
#X restore 22 426 pd global_play_delete;
#N canvas 646 57 819 791 midicontrol 0;
#X obj 243 112 cnv 15 300 600 empty empty empty 20 12 0 14 #dcdcdc #404040 0;
#X obj 212 479 extra/sv 1_1_loop_recbutton;
#X obj 231 506 extra/sv 1_1_loop_playbutton;
#X obj 261 530 extra/sv 2_1_loop_recbutton;
#X obj 286 560 extra/sv 2_1_loop_playbutton;
#X obj 318 596 extra/sv 3_1_loop_recbutton;
#X obj 336 640 extra/sv 3_1_loop_playbutton;
#X obj 711 739 extra/sv octaver_on;
#X obj 672 667 extra/sv reverb_on;
#X obj 754 714 tgl 19 0 empty empty empty 0 -10 0 12 #fcfcfc #000000 #000000 0 1;
#X obj 713 641 tgl 19 0 empty empty empty 0 -10 0 12 #fcfcfc #000000 #000000 0 1;
#X obj 569 487 extra/sv 1_1_fileplayer_playstop;
#X obj 1337 94 cnv 15 300 600 empty empty empty 20 12 0 14 #dcdcdc #404040 0;
#X obj 930 102 cnv 15 300 600 empty empty empty 20 12 0 14 #dcdcdc #404040 0;
#X obj 1486 518 extra/sv octaver;
#X obj 1581 488 extra/sv reverb_room;
#X obj 1582 462 extra/sv reverb_drywet;
#X obj 942 137 extra/sv 1_1_loop_ledmono;
#X obj 999 164 extra/sv 2_1_loop_ledmono;
#X obj 1081 192 extra/sv 3_1_loop_ledmono;
#X obj 580 518 extra/sv 2_1_fileplayer_playstop;
#X obj 591 551 extra/sv 3_1_fileplayer_playstop;
#X obj 1377 603 extra/sv 1_1_loop_volume;
#X obj 1412 572 extra/sv 2_1_loop_volume;
#X obj 1441 544 extra/sv 3_1_loop_volume;
#X obj 890 715 sel 0;
#X obj 872 739 extra/sv global_fadeout;
#X obj 680 591 sel 0;
#X obj 712 616 bang;
#X obj 729 591 sel 0;
#X obj 761 616 bang;
#X connect 9 0 7 1;
#X connect 10 0 8 1;
#X connect 25 1 26 1;
#X connect 27 1 28 0;
#X connect 28 0 10 0;
#X connect 29 1 30 0;
#X connect 30 0 9 0;
#X restore 22 300 pd midicontrol;
#X obj 57 51 declare -path patches;
#X obj 363 271 clone -s 1 audio/loop 3 1 1 1 1 0;
#X obj 463 543 extra/sv reverb_room;
#X obj 347 465 extra/sv reverb_drywet;
#X obj 543 410 loadbang;
#X obj 325 693 *~;
#X obj 326 662 effect/reverb1~;
#X msg 544 467 4;
#N canvas 130 145 450 300 activate 0;
#X obj 126 60 inlet~;
#X obj 122 207 outlet~;
#X obj 230 89 line~;
#X msg 231 52 1 10;
#X obj 124 135 *~;
#X msg 291 52 0 10;
#X obj 262 13 sel 1 0;
#X obj 262 -13 inlet;
#X connect 0 0 4 0;
#X connect 2 0 4 1;
#X connect 3 0 2 0;
#X connect 4 0 1 0;
#X connect 5 0 2 0;
#X connect 6 0 3 0;
#X connect 6 1 5 0;
#X connect 7 0 6 0;
#X restore 326 637 pd activate;
#N canvas 110 143 450 300 scale 0;
#X obj 157 22 inlet;
#X obj 159 256 outlet;
#X floatatom 157 170 0 0 120 0 - - - 0;
#X obj 157 146 * 100;
#X obj 156 122 sqrt;
#X floatatom 157 220 5 0 0 0 - - - 0;
#X obj 157 193 / 100;
#X obj 155 67 / 255;
#X connect 0 0 7 0;
#X connect 2 0 6 0;
#X connect 3 0 2 0;
#X connect 4 0 3 0;
#X connect 5 0 1 0;
#X connect 6 0 5 0;
#X connect 7 0 4 0;
#X restore 347 491 pd scale;
#X obj 263 683 *~ 1;
#X obj 613 543 extra/sv reverb_on;
#X msg 542 434 10;
#X obj 457 628 bng 19 250 50 0 empty empty empty 0 -10 0 12 #fcfcfc #000000 #000000;
#X obj 459 578 / 3;
#X obj 23 334 audio/tempo \$1;
#X obj 623 270 clone -s 1 audio/loop_opensave 3 1 1 1 1 0;
#N canvas 92 130 739 696 save_utils 0;
#X symbolatom 115 281 44 0 0 0 - - - 0;
#X obj 87 251 file patchpath;
#X text 75 167 get the directory this patch is in;
#X floatatom 88 223 5 0 0 0 - - - 0;
#X obj 47 168 bng 20 250 50 0 empty empty empty -35 10 0 10 #dfdfdf #000000 #000000;
#X obj 88 302 s lucibox_path;
#X obj 47 136 loadbang;
#X obj -24 273 extra/sv song;
#X msg 4 246 0;
#X connect 1 0 0 0;
#X connect 1 0 5 0;
#X connect 3 0 1 0;
#X connect 4 0 1 0;
#X connect 4 0 8 0;
#X connect 6 0 4 0;
#X connect 8 0 7 1;
#X restore 21 452 pd save_utils;
#X obj 21 484 osc/global_osc;
#X obj 116 517 bng 19 250 50 0 empty empty empty 0 -10 0 12 #fcfcfc #000000 #000000;
#X obj 21 516 tgl 19 0 empty empty empty 0 -10 0 12 #fcfcfc #000000 #000000 0 1;
#X obj 929 270 clone -s 1 osc/loop_osc 3 1 1 1 1 0;
#N canvas 382 118 588 601 tempo_to_stripled 0;
#X obj 96 161 tgl 19 0 empty empty empty 0 -10 0 12 #fcfcfc #000000 #000000 0 1;
#X obj 96 347 oscformat -f iii /lucibox/led/strip/looper;
#X obj 96 258 hradio 19 1 0 8 empty empty empty 0 -10 0 12 #fcfcfc #000000 #000000 0;
#X obj 96 285 t b i;
#X obj 96 376 s osc_out;
#X obj 96 199 sel 0;
#X msg 96 227 0;
#X obj 96 10 r tempo_click_bang;
#X obj 279 4 r tempo_quantif_bang;
#X obj 96 36 t b b;
#X obj 135 81 delay 30;
#X msg 134 119 0;
#X msg 96 79 1;
#X obj 97 314 pack 4 1 i;
#X msg 129 228 6;
#X obj 280 159 tgl 19 0 empty empty empty 0 -10 0 12 #fcfcfc #000000 #000000 0 1;
#X obj 280 256 hradio 19 1 0 8 empty empty empty 0 -10 0 12 #fcfcfc #000000 #000000 0;
#X obj 280 283 t b i;
#X obj 280 197 sel 0;
#X msg 280 225 0;
#X obj 280 34 t b b;
#X obj 319 79 delay 30;
#X msg 318 117 0;
#X msg 280 77 1;
#X obj 281 312 pack 4 2 i;
#X msg 313 226 5;
#X connect 0 0 5 0;
#X connect 1 0 4 0;
#X connect 2 0 3 0;
#X connect 3 0 13 0;
#X connect 3 1 13 2;
#X connect 5 0 6 0;
#X connect 5 1 14 0;
#X connect 6 0 2 0;
#X connect 7 0 9 0;
#X connect 8 0 20 0;
#X connect 9 0 12 0;
#X connect 9 1 10 0;
#X connect 10 0 11 0;
#X connect 11 0 0 0;
#X connect 12 0 0 0;
#X connect 13 0 1 0;
#X connect 14 0 2 0;
#X connect 15 0 18 0;
#X connect 16 0 17 0;
#X connect 17 0 24 0;
#X connect 17 1 24 2;
#X connect 18 0 19 0;
#X connect 18 1 25 0;
#X connect 19 0 16 0;
#X connect 20 0 23 0;
#X connect 20 1 21 0;
#X connect 21 0 22 0;
#X connect 22 0 15 0;
#X connect 23 0 15 0;
#X connect 24 0 1 0;
#X connect 25 0 16 0;
#X restore 37 722 pd tempo_to_stripled;
#N canvas 411 449 450 300 osc_volume 0;
#X obj 165 67 r osc_in;
#X obj 166 148 route volume;
#X obj 115 109 bng 19 250 50 0 empty empty empty 0 -10 0 12 #fcfcfc #000000 #000000;
#X obj 194 118 print;
#X obj 166 243 outlet;
#X connect 0 0 1 0;
#X connect 0 0 2 0;
#X connect 0 0 3 0;
#X connect 1 0 4 0;
#X restore 821 426 pd osc_volume;
#X floatatom 821 454 5 0 0 0 - - - 0;
#X connect 1 1 11 0;
#X connect 2 0 1 0;
#X connect 2 1 1 0;
#X connect 4 0 5 0;
#X connect 9 0 22 0;
#X connect 9 0 24 0;
#X connect 11 0 9 0;
#X connect 11 0 15 0;
#X connect 15 0 9 0;
#X connect 16 0 28 0;
#X connect 17 0 23 0;
#X connect 18 0 26 0;
#X connect 18 0 21 0;
#X connect 19 0 3 0;
#X connect 19 0 3 1;
#X connect 20 0 19 0;
#X connect 21 0 16 1;
#X connect 22 0 20 0;
#X connect 23 0 19 1;
#X connect 24 0 3 0;
#X connect 24 0 3 1;
#X connect 25 0 22 1;
#X connect 26 0 17 1;
#X connect 27 0 20 2;
#X connect 28 0 20 1;
#X connect 32 0 34 0;
#X connect 32 1 33 0;
#X connect 37 0 38 0;
#X coords 0 -1 1 1 140 42 2 100 100;
#X restore 317 118 pd patch;
#X coords 0 -1 1 1 800 83 1 100 100;
