#N canvas 37 60 957 786 10;
#X declare -path ../;
#X obj 102 101 cnv 15 80 30 empty empty OCTAVER 2 12 0 18 -262144 -66577
0;
#X obj -116 -23 declare -path ../;
#X obj 116 136 vsl 15 128 -100 100 0 0 empty empty dry/wet 0 -9 0 10
-262144 -1 -1 6800 1;
#X text 136 186 0;
#X text 137 160 +;
#X text 138 135 ++;
#X text 138 244 --;
#X text 137 215 -;
#X obj 147 350 extra/sv octaver;
#X connect 2 0 8 1;
#X coords 0 -1 1 1 82 170 2 100 100;
