#N canvas 723 81 957 786 10;
#X declare -path ../;
#X obj -28 537 pack \$1 \$2 \$0;
#X obj -28 508 loadbang;
#X obj -48 509 bng 15 250 50 0 empty empty empty 17 7 0 10 -262144
-1 -1;
#X obj 101 101 cnv 15 100 25 empty \$0_bgcnv SAMPLER_1_1 2 12 0 12
-191407 -66577 0;
#X obj -116 -23 declare -path ../;
#X msg -27 570 \; \$3_bgcnv label SAMPLER_\$1_\$2;
#X obj 328 119 extra/sv \$1_\$2_fileplayer_playstop;
#X obj 178 32 bng 15 250 50 0 empty empty empty 17 7 0 10 -262144 -1
-1;
#X obj 199 32 bng 15 250 50 0 empty empty empty 17 7 0 10 -262144 -1
-1;
#X obj 226 32 bng 15 250 50 0 empty empty empty 17 7 0 10 -262144 -1
-1;
#N canvas 629 254 1038 529 play 0;
#X obj 270 -14 t b f;
#X msg 293 -48 2;
#X obj 297 18 pack 22 0 0 \$0;
#X msg 294 49 \; \$4_playsquare color \$1 \$2 \$3;
#X msg 256 -48 46;
#X obj 368 -95 loadbang;
#X obj 105 101 hradio 23 1 0 2 empty empty empty 0 -8 0 10 -262144
-1 -1 0;
#X obj 100 100 cnv 15 59 24 empty \$0_playcnv PLAY 20 12 0 15 -1 -66577
0;
#X obj 104 106 cnv 13 13 13 empty \$0_playsquare empty 6 9 0 14 -66577
-262144 0;
#X obj 105 214 bang;
#X obj 101 260 outlet;
#X obj 256 -110 tgl 15 0 empty empty empty 17 7 0 10 -262144 -1 -1
0 1;
#X obj 256 -83 sel 1;
#X msg 256 -169 bang;
#X obj 256 -243 inlet;
#X obj 336 -240 inlet;
#X obj 396 -240 inlet;
#X obj 335 -199 t b b;
#X msg 328 -156 stop;
#X obj 395 -198 t b b;
#X text 784 10 label-color;
#X text 799 35 label-color;
#X obj 499 14 pack 22 0 0 \$0;
#X obj 499 -13 t b f;
#X msg 522 -47 2;
#X msg 500 47 \; \$4_playcnv color \$1 \$2 \$3;
#X msg 485 -47 46;
#X obj 256 -139 metro 150;
#X connect 0 1 2 0;
#X connect 1 0 0 0;
#X connect 2 0 3 0;
#X connect 4 0 0 0;
#X connect 5 0 1 0;
#X connect 5 0 24 0;
#X connect 6 0 9 0;
#X connect 9 0 10 0;
#X connect 11 0 12 0;
#X connect 12 0 4 0;
#X connect 12 1 1 0;
#X connect 13 0 27 0;
#X connect 14 0 13 0;
#X connect 15 0 17 0;
#X connect 16 0 19 0;
#X connect 17 0 26 0;
#X connect 17 1 18 0;
#X connect 18 0 1 0;
#X connect 18 0 27 0;
#X connect 19 0 24 0;
#X connect 19 1 18 0;
#X connect 22 0 25 0;
#X connect 23 0 22 0;
#X connect 23 1 22 2;
#X connect 24 0 23 0;
#X connect 26 0 23 0;
#X connect 27 0 11 0;
#X coords 0 -1 1 1 60 25 2 100 100;
#X restore 184 101 pd play;
#X obj 296 390 bng 15 250 50 0 empty empty empty 17 7 0 10 -262144
-1 -1;
#X msg 326 214 1;
#X obj 539 175 sel 1 0;
#X connect 0 0 5 0;
#X connect 1 0 0 0;
#X connect 2 0 0 0;
#X connect 6 0 13 0;
#X connect 7 0 10 0;
#X connect 8 0 10 1;
#X connect 9 0 10 2;
#X connect 10 0 11 0;
#X connect 11 0 12 0;
#X connect 12 0 6 1;
#X connect 13 0 8 0;
#X connect 13 1 9 0;
#X coords 0 -1 1 1 145 27 2 100 100;
