#N canvas 491 149 954 337 10;
#X obj 127 -60 extra/sv \$1_\$2_state;
#X symbolatom 101 101 16 0 0 0 - - -;
#X obj 214 67 symbol;
#X obj 216 -25 sel 0 0.5 1 1.5 2 2.5 2.6 3 3.5 4 5;
#X msg 185 34 empty;
#X msg 228 34 wait_for_rec;
#X msg 315 34 rec;
#X msg 348 33 wait_for_endrec;
#X msg 450 33 play;
#X msg 485 33 wait_for_stop;
#X msg 575 33 wait_for_overdub;
#X msg 682 33 stop;
#X msg 717 32 wait_for_play;
#X msg 806 32 overdub;
#X msg 860 32 clearing;
#X obj 126 -100 hradio 15 1 0 8 empty empty empty 0 -8 0 10 -262144
-1 -1 0;
#X connect 0 0 3 0;
#X connect 2 0 1 0;
#X connect 3 0 4 0;
#X connect 3 1 5 0;
#X connect 3 2 6 0;
#X connect 3 3 7 0;
#X connect 3 4 8 0;
#X connect 3 5 9 0;
#X connect 3 6 10 0;
#X connect 3 7 11 0;
#X connect 3 8 12 0;
#X connect 3 9 13 0;
#X connect 3 10 14 0;
#X connect 4 0 2 0;
#X connect 5 0 2 0;
#X connect 6 0 2 0;
#X connect 7 0 2 0;
#X connect 8 0 2 0;
#X connect 9 0 2 0;
#X connect 10 0 2 0;
#X connect 11 0 2 0;
#X connect 12 0 2 0;
#X connect 13 0 2 0;
#X connect 14 0 2 0;
#X connect 15 0 0 1;
#X coords 0 -1 1 1 100 16 2 100 100;
