#N canvas 676 125 673 427 12;
#X msg 61 302 disconnect;
#X obj 63 241 sel 0 1;
#X obj 63 209 tgl 19 0 empty empty empty 0 -10 0 12 #fcfcfc #000000 #000000 0 1;
#X obj 74 338 netsend -u -b;
#X msg 86 272 connect localhost 8001;
#X obj 163 207 r osc_out;
#X obj 146 51 oscparse;
#X obj 146 74 list trim;
#X obj 146 23 netreceive -u -b 8000;
#X obj 63 156 loadbang;
#X msg 63 184 1;
#X obj 260 102 outlet;
#X obj 222 360 outlet;
#X obj 146 102 route lucibox;
#X obj 147 133 s osc_in;
#X connect 0 0 3 0;
#X connect 1 0 0 0;
#X connect 1 1 4 0;
#X connect 2 0 1 0;
#X connect 3 0 12 0;
#X connect 4 0 3 0;
#X connect 5 0 3 0;
#X connect 6 0 7 0;
#X connect 7 0 11 0;
#X connect 7 0 13 0;
#X connect 8 0 6 0;
#X connect 9 0 10 0;
#X connect 10 0 2 0;
#X connect 13 0 14 0;
