#N canvas 547 114 816 641 12;
#X declare -path ../;
#X obj 17 4 declare -path ../;
#X obj 67 175 extra/sv \$1_\$2_loop_recbutton;
#X obj 306 176 extra/sv \$1_\$2_loop_playbutton;
#X obj 95 257 extra/sv \$1_\$2_loop_ledrec;
#X obj 530 259 extra/sv \$1_\$2_loop_ledplay;
#X obj 530 290 tgl 19 0 empty empty empty 0 -10 0 12 #fcfcfc #000000 #000000 0 1;
#X obj 95 282 tgl 19 0 empty empty empty 0 -10 0 12 #fcfcfc #000000 #000000 0 1;
#X obj 130 25 r osc_in;
#X floatatom 130 133 5 0 0 0 - - - 0;
#X obj 130 101 route rec play, f 51;
#X obj 130 49 route loop;
#X floatatom 308 131 5 0 0 0 - - - 0;
#X obj 130 74 route channel\$1;
#X obj 95 468 oscformat -f iii /lucibox/led/strip/looper;
#X obj 95 379 hradio 19 1 0 8 empty empty empty 0 -10 0 12 #fcfcfc #000000 #000000 0;
#X obj 95 497 s osc_out;
#X obj 95 320 sel 0;
#X msg 95 348 0;
#X msg 128 349 2;
#X obj 530 378 hradio 19 1 0 8 empty empty empty 0 -10 0 12 #fcfcfc #000000 #000000 0;
#X obj 530 319 sel 0;
#X msg 530 349 0;
#X msg 563 348 7;
#X obj 296 258 extra/sv \$1_\$2_is_loop_recorded;
#X floatatom 296 279 5 0 0 0 - - - 0;
#X obj 298 371 hradio 19 1 0 10 empty empty empty 0 -10 0 12 #fcfcfc #000000 #000000 0;
#X obj 298 312 sel 0;
#X msg 298 339 0;
#X msg 331 341 3;
#X obj 96 435 pack \$1 0 f;
#X obj 300 433 pack \$1 1 f;
#X obj 531 434 pack \$1 2 f;
#X obj 95 406 t b f;
#X obj 299 404 t b f;
#X obj 530 405 t b f;
#X obj 406 60 s osc_out;
#X obj 406 31 oscformat -f ii /lucibox/led/strip/clear;
#X msg 407 8 0 0;
#X connect 3 0 6 0;
#X connect 4 0 5 0;
#X connect 5 0 20 0;
#X connect 6 0 16 0;
#X connect 7 0 10 0;
#X connect 8 0 1 1;
#X connect 9 0 8 0;
#X connect 9 1 11 0;
#X connect 10 0 12 0;
#X connect 11 0 2 1;
#X connect 12 0 9 0;
#X connect 13 0 15 0;
#X connect 14 0 32 0;
#X connect 16 0 17 0;
#X connect 16 1 18 0;
#X connect 17 0 14 0;
#X connect 18 0 14 0;
#X connect 19 0 34 0;
#X connect 20 0 21 0;
#X connect 20 1 22 0;
#X connect 21 0 19 0;
#X connect 22 0 19 0;
#X connect 23 0 24 0;
#X connect 24 0 26 0;
#X connect 25 0 33 0;
#X connect 26 0 27 0;
#X connect 26 1 28 0;
#X connect 27 0 25 0;
#X connect 28 0 25 0;
#X connect 29 0 13 0;
#X connect 30 0 13 0;
#X connect 31 0 13 0;
#X connect 32 0 29 0;
#X connect 32 1 29 2;
#X connect 33 0 30 0;
#X connect 33 1 30 2;
#X connect 34 0 31 0;
#X connect 34 1 31 2;
#X connect 36 0 35 0;
#X connect 37 0 36 0;
