#N canvas 545 185 1135 608 12;
#X msg 87 210 1;
#X msg 54 176 0;
#X text 135 152 1 starts playback;
#X text 138 175 0 stops it;
#X obj 54 152 sel 0;
#X obj 294 366 outlet~;
#X msg 353 291 1;
#X msg 59 285 0;
#N canvas 626 226 527 341 init 0;
#X obj 82 261 extra/sv \$1_\$2_fileplayer_playstop;
#X obj 86 221 extra/sv \$1_\$3_fileplayer_end;
#X obj 347 157 loadbang;
#X msg 348 187 0;
#X connect 2 0 3 0;
#X connect 3 0 0 1;
#X connect 3 0 1 1;
#X restore 21 -72 pd init;
#X obj 306 263 readsf~;
#X obj 54 126 extra/sv \$1_\$2_fileplayer_playstop;
#X obj 228 333 audio/mixer \$1_\$2_fileplayer;
#X obj 135 98 tgl 15 0 empty empty empty 17 7 0 10 #fcfcfc #000000 #000000 0 1;
#X obj 306 209 symbol;
#X msg 306 234 open \$1;
#X obj 86 180 t b b b;
#X obj 450 255 print;
#X obj 86 6 r fileplayer_stop;
#X obj 86 32 bang;
#X obj 147 59 sel 1;
#X msg 164 84 0, f 2;
#X obj 136 -60 r fileplayer_play;
#N canvas 719 218 450 300 playFromOutside 0;
#X obj 157 -39 inlet;
#X obj 157 -7 == \$1;
#X obj 157 24 sel 1;
#X obj 1 110 extra/sv \$1_\$2_fileplayer_playstop;
#X obj 236 150 == 0;
#X obj 236 177 sel 1;
#X msg 236 205 1;
#X msg 189 56 0;
#X connect 0 0 1 0;
#X connect 1 0 2 0;
#X connect 2 0 3 2;
#X connect 2 1 7 0;
#X connect 3 1 4 0;
#X connect 4 0 5 0;
#X connect 5 0 6 0;
#X connect 6 0 3 1;
#X connect 7 0 3 1;
#X restore 137 -29 pd playFromOutside;
#X obj 344 63 loadbang;
#X obj 345 92 i \$1;
#X obj 426 213 print open;
#X obj 18 448 extra/sv \$1_\$2_fileplayer_end;
#X obj 147 35 extra/sv \$1_\$2_fileplayer_end;
#X msg 345 118 symbol ../sounds/file\$1.wav;
#N canvas 68 97 450 300 init 1;
#X obj 161 87 loadbang;
#X obj 168 185 extra/sv \$1_\$2_fileplayer_volume;
#X msg 161 114 150;
#X connect 0 0 2 0;
#X connect 2 0 1 1;
#X restore 594 104 pd init;
#X connect 0 0 9 0;
#X connect 1 0 9 0;
#X connect 4 0 1 0;
#X connect 4 1 15 0;
#X connect 6 0 26 1;
#X connect 7 0 26 1;
#X connect 9 0 11 0;
#X connect 9 1 6 0;
#X connect 10 0 4 0;
#X connect 11 1 5 0;
#X connect 12 0 10 1;
#X connect 13 0 14 0;
#X connect 14 0 9 0;
#X connect 14 0 16 0;
#X connect 15 0 0 0;
#X connect 15 1 13 0;
#X connect 15 2 7 0;
#X connect 17 0 18 0;
#X connect 18 0 1 0;
#X connect 19 0 20 0;
#X connect 20 0 10 1;
#X connect 21 0 22 0;
#X connect 23 0 24 0;
#X connect 24 0 28 0;
#X connect 27 0 19 0;
#X connect 28 0 13 1;
#X connect 28 0 25 0;
