#N canvas 691 170 1225 728 10;
#X obj 283 -16 inlet;
#X msg -35 406 1;
#X obj -38 474 bng 40 1000 500 0 empty empty 1 17 7 0 10 -258113 -1
-1;
#X obj 283 9 hardware/press_manager \$1 \$2;
#X text 512 693 Ahahahah Dollar zéro;
#X obj 284 87 extra/visual_tester_state_int \$1 \$2;
#X obj 340 242 s \$1_\$2_action;
#X msg 212 174 start_rec;
#X msg 279 174 stop_rec;
#X msg 408 175 play;
#X obj 454 88 extra/visual_tester_state_int \$1 \$2;
#X msg 528 170 clear;
#X msg 342 174 stop_next;
#X connect 0 0 3 0;
#X connect 1 0 2 0;
#X connect 3 0 5 0;
#X connect 3 2 10 0;
#X connect 5 0 7 0;
#X connect 5 1 8 0;
#X connect 5 2 12 0;
#X connect 5 3 9 0;
#X connect 7 0 6 0;
#X connect 8 0 6 0;
#X connect 9 0 6 0;
#X connect 10 2 11 0;
#X connect 10 3 11 0;
#X connect 11 0 6 0;
#X connect 12 0 6 0;
