#N canvas 330 114 450 300 10;
#X obj 101 249 dac~;
#N canvas 353 391 450 300 kick 0;
#X obj 155 46 bng 24 250 50 0 empty empty empty 17 7 0 10 #00fc04 #000000 #000000;
#X msg 155 75 0 \, 1 200;
#X obj 155 104 line~;
#X obj 155 212 -~ 0.25;
#X obj 155 241 cos~;
#X obj 155 172 *~ 20;
#X obj 155 138 sqrt~;
#X obj 119 9 inlet;
#X obj 156 306 outlet~;
#X obj 155 275 lop~ 200;
#X connect 0 0 1 0;
#X connect 1 0 2 0;
#X connect 2 0 6 0;
#X connect 3 0 4 0;
#X connect 4 0 9 0;
#X connect 5 0 3 0;
#X connect 6 0 5 0;
#X connect 7 0 0 0;
#X connect 9 0 8 0;
#X restore 92 216 pd kick;
#X obj 103 87 inlet;
#X obj 177 90 inlet;
#X obj 249 88 extra/sv metronome;
#X obj 93 170 spigot 0;
#X obj 177 173 spigot 0;
#X connect 1 0 0 0;
#X connect 1 0 0 1;
#X connect 2 0 5 0;
#X connect 3 0 6 0;
#X connect 4 0 5 1;
#X connect 4 0 6 1;
#X connect 5 0 1 0;
