#N canvas 0 23 450 300 12;
#X obj 62 188 moses 1;
#X obj 77 212 extra/sv pitch;
#X floatatom 77 236 5 0 0 0 - - - 0;
#X obj 70 -3 inlet~;
#X obj 77 259 i;
#X obj 77 283 change;
#X obj 70 24 hip~ 80;
#X obj 70 48 hip~ 80;
#X obj 70 72 lop~ 800;
#X obj 70 96 lop~ 800;
#X obj 62 164 sigmund~ -hop 2048 pitch env;
#X connect 0 1 1 1;
#X connect 1 0 2 0;
#X connect 2 0 4 0;
#X connect 3 0 6 0;
#X connect 4 0 5 0;
#X connect 6 0 7 0;
#X connect 7 0 8 0;
#X connect 8 0 9 0;
#X connect 9 0 10 0;
#X connect 10 0 0 0;
