#N canvas 102 244 450 300 12;
#X obj 84 218 extra/sv pitch;
#X floatatom 84 242 5 0 0 0 - - - 0;
#X obj 70 -3 inlet~;
#X obj 69 164 fiddle~ 1024 1 20 3;
#X floatatom 69 187 5 0 0 0 - - - 0;
#X obj 71 97 lop~ 800;
#X obj 71 127 lop~ 800;
#X obj 69 26 hip~ 80;
#X obj 69 56 hip~ 80;
#X connect 0 0 1 0;
#X connect 2 0 7 0;
#X connect 3 0 4 0;
#X connect 4 0 0 1;
#X connect 5 0 6 0;
#X connect 6 0 3 0;
#X connect 7 0 8 0;
#X connect 8 0 5 0;
