#N canvas 462 148 813 627 10;
#X obj 101 520 outlet~;
#X text 184 407 2 = nbbar*1/tempofinal;
#X floatatom 172 71 5 0 0 0 - - -;
#X obj 172 118 * 1;
#X floatatom 450 123 5 0 0 0 - - -;
#X text 185 424 1 = nbbar*1/tempo;
#X obj 533 336 s \$0_loop_precession;
#X obj 535 126 / 1000;
#X obj 535 157 pow -1;
#X obj 535 183 * 60;
#X floatatom 534 220 5 0 0 0 - - -;
#X obj 533 299 / 1;
#X obj 450 145 i 0;
#X obj 533 266 t b f;
#X obj 172 91 t b f;
#X obj 47 241 f 0;
#X obj 47 44 inlet;
#X msg -311 336 300;
#X obj 366 29 extra/sv tempo;
#X text 419 -7 TODO : get global tempo when loop_tempo changed;
#X obj 574 221 s \$1_\$2_realtempo_toUI;
#X obj -313 213 sel 0;
#X floatatom 173 193 8 0 0 0 - - -;
#X text 89 157 this change pitch;
#X text 222 197 this don't change pitch;
#X floatatom 340 87 5 0 0 0 - - -;
#X obj 47 394 pack f f;
#X msg 47 427 \$2 \$1;
#X obj 13 431 bng 15 250 50 0 empty empty empty 17 7 0 10 -262144 -1
-1;
#X obj 101 473 vline~;
#X obj 535 87 extra/sv \$1_\$2_loop_tempo;
#X obj 172 49 extra/sv \$1_\$2_loop_size;
#X obj -314 183 r \$0_play;
#X obj -289 248 extra/sv tempo_isplaying;
#X obj -289 272 sel 0;
#X obj 142 234 extra/sv \$1_\$2_loop_timer;
#X text -326 367 This is a trick \, with time compression to have noise
;
#X text -326 381 when the loop is stopped;
#X text -99 47 This inlet give a int;
#X text -100 64 that give the start of the loop;
#X text -101 82 give 0 to start from begining;
#X obj 300 340 *;
#X obj 297 267 t f b;
#X obj 328 298 samplerate~;
#X obj 328 319 / 1000;
#X obj 219 370 - 0;
#X text 148 280 if does't start at 0;
#X text 146 296 reduce the time to read;
#X text -312 420 Not needed if there is no time compression;
#X obj 47 182 t b b f f;
#X connect 2 0 14 0;
#X connect 3 0 22 0;
#X connect 4 0 12 0;
#X connect 7 0 8 0;
#X connect 8 0 9 0;
#X connect 9 0 10 0;
#X connect 10 0 13 0;
#X connect 11 0 6 0;
#X connect 12 0 11 0;
#X connect 13 0 11 0;
#X connect 13 1 11 1;
#X connect 14 0 3 0;
#X connect 14 1 3 1;
#X connect 15 0 26 0;
#X connect 16 0 49 0;
#X connect 17 0 29 0;
#X connect 18 0 25 0;
#X connect 21 0 17 0;
#X connect 22 0 15 1;
#X connect 25 0 3 0;
#X connect 26 0 27 0;
#X connect 26 0 28 0;
#X connect 27 0 29 0;
#X connect 29 0 0 0;
#X connect 30 0 7 0;
#X connect 30 0 20 0;
#X connect 31 0 2 0;
#X connect 32 0 21 0;
#X connect 33 0 34 0;
#X connect 34 0 17 0;
#X connect 35 1 42 0;
#X connect 41 0 45 0;
#X connect 42 0 41 0;
#X connect 42 1 43 0;
#X connect 43 0 44 0;
#X connect 44 0 41 1;
#X connect 45 0 26 1;
#X connect 49 0 15 0;
#X connect 49 1 35 2;
#X connect 49 2 45 1;
#X connect 49 3 29 0;
