#N canvas 463 84 1112 732 12;
#X declare -stdpath ./;
#X obj 259 98 mtof;
#X text 160 23 OCTAVE DOUBLING VIA VARIABLE COMB FILTER;
#X obj 256 277 samplerate~;
#X obj 239 237 t f b;
#X obj 96 462 +~;
#X obj 238 334 +;
#X obj 238 388 line~;
#X obj 238 363 pack 0 20;
#X text 298 98 fundamental frequency;
#X text 325 155 1/2 period \, in msec;
#X text 290 321 estimate fiddle~ delay;
#X text 292 336 as one window (in msec);
#X obj 506 32 declare -stdpath ./;
#X text 587 162 track pitch;
#X text 504 186 reject low numbers indicating no pitch found;
#X floatatom 239 208 5 0 0 0 - - - 0;
#X obj 239 178 expr 500/$f1;
#X floatatom 337 368 20 0 0 0 - - - 0;
#X obj 53 26 inlet~;
#X obj 117 490 inlet;
#X obj 95 651 outlet~;
#X msg 117 516 \$1 10;
#X obj 116 542 line~;
#X obj 96 579 *~;
#X obj 78 66 delwrite~ G06-del\$0 100;
#X obj 96 350 delread~ G06-del\$0;
#X obj 114 436 vd~ G06-del\$0;
#X obj 258 68 extra/sv pitch;
#X obj 257 144 * \$1;
#X obj 94 613 hip~ 5;
#X obj 165 648 outlet~;
#X obj 164 610 hip~ 5;
#X obj 256 303 expr 1024000/$f1;
#X connect 0 0 28 0;
#X connect 2 0 32 0;
#X connect 3 0 5 0;
#X connect 3 1 2 0;
#X connect 4 0 23 0;
#X connect 4 0 31 0;
#X connect 5 0 7 0;
#X connect 6 0 26 0;
#X connect 7 0 6 0;
#X connect 15 0 3 0;
#X connect 16 0 15 0;
#X connect 18 0 24 0;
#X connect 19 0 21 0;
#X connect 21 0 22 0;
#X connect 22 0 23 1;
#X connect 23 0 29 0;
#X connect 25 0 4 0;
#X connect 26 0 4 1;
#X connect 27 0 0 0;
#X connect 28 0 16 0;
#X connect 29 0 20 0;
#X connect 31 0 30 0;
#X connect 32 0 5 1;
#X connect 32 0 17 0;
#X connect 32 0 25 0;
