#N canvas 44 80 1165 659 10;
#X obj 100 -179 cnv 15 600 60 empty empty TEMPO 20 12 0 14 #c4fcfc #404040 0;
#N canvas 217 235 700 500 init 0;
#X obj 209 155 extra/sv song;
#X obj 261 31 loadbang;
#X msg 234 82 0;
#X obj 302 155 extra/sv quantif_global;
#X msg 346 84 4;
#X floatatom 437 178 5 0 0 0 - - - 0;
#X obj 392 133 bng 15 250 50 0 empty empty empty 17 7 0 10 #fcfcfc #000000 #000000;
#X obj 464 155 extra/sv tempo;
#X msg 490 90 498;
#X msg 99 83 0;
#X obj 53 155 extra/sv tempo_isplaying;
#X connect 1 0 2 0;
#X connect 1 0 4 0;
#X connect 1 0 8 0;
#X connect 1 0 9 0;
#X connect 2 0 0 1;
#X connect 3 1 5 0;
#X connect 4 0 3 1;
#X connect 6 0 3 2;
#X connect 8 0 7 1;
#X connect 9 0 10 1;
#X restore 200 -145 pd init;
#X obj 421 -105 cnv 15 300 600 empty empty TEMPO_VALUE 20 12 0 14 #c4fcc4 #404040 0;
#X obj 102 -106 cnv 15 300 600 empty empty START_STOP 20 12 0 14 #fce0c4 #404040 0;
#X obj 181 47 sel 1;
#X obj 203 209 bng 15 250 50 0 empty empty empty 17 7 0 10 #fcfcfc #000000 #000000;
#X floatatom 541 185 10 0 0 2 period_(_ms_) - - 0;
#X msg 213 141 stop;
#X obj 181 141 bang;
#N canvas 110 232 763 528 quantif 0;
#X msg 157 73 0;
#X floatatom 157 139 5 0 0 0 - - - 0;
#X obj 157 105 i 0;
#X obj 214 105 + 1;
#X obj 157 198 % 8;
#X floatatom 157 222 5 0 0 0 - - - 0;
#X obj 86 59 inlet;
#X obj 157 434 outlet;
#X msg 299 63 8;
#X obj 306 147 extra/sv quantif_global;
#X msg 275 343 0;
#X obj 233 273 t b b;
#X obj 233 300 f 0;
#X msg 233 328 1 \$1;
#X obj 527 25 inlet;
#X obj 343 233 *;
#X floatatom 286 208 7 0 0 0 - - - 0;
#X floatatom 528 61 5 0 0 0 - - - 0;
#X obj 276 382 line 0 50;
#X obj 94 109 bng 15 250 50 0 empty empty empty 17 7 0 10 #fcfcfc #000000 #000000;
#X obj 276 432 outlet;
#X obj 220 388 bng 15 250 50 0 empty empty empty 17 7 0 10 #fcfcfc #000000 #000000;
#X obj 220 388 bng 15 250 50 0 empty empty empty 17 7 0 10 #fcfcfc #000000 #000000;
#X floatatom 343 259 5 0 0 0 - - - 0;
#X obj 343 180 t b f;
#X obj 157 23 extra/tempo_get_play;
#X obj 300 23 extra/tempo_get_stop;
#X obj 298 305 extra/tempo_get_stop;
#X obj 157 242 sel 0;
#X connect 0 0 2 0;
#X connect 1 0 4 0;
#X connect 2 0 1 0;
#X connect 2 0 3 0;
#X connect 3 0 2 1;
#X connect 4 0 5 0;
#X connect 5 0 28 0;
#X connect 6 0 2 0;
#X connect 6 0 19 0;
#X connect 9 0 4 1;
#X connect 9 0 16 0;
#X connect 9 0 24 0;
#X connect 10 0 18 0;
#X connect 11 0 12 0;
#X connect 11 1 10 0;
#X connect 12 0 13 0;
#X connect 13 0 18 0;
#X connect 13 0 21 0;
#X connect 14 0 17 0;
#X connect 14 0 15 0;
#X connect 15 0 12 1;
#X connect 15 0 23 0;
#X connect 18 0 20 0;
#X connect 24 0 15 0;
#X connect 24 1 15 1;
#X connect 25 0 0 0;
#X connect 26 0 0 0;
#X connect 26 0 8 0;
#X connect 27 0 10 0;
#X connect 28 0 7 0;
#X connect 28 0 11 0;
#X restore 228 258 pd quantif;
#X obj 203 228 t b b;
#X obj 181 4 extra/sv tempo_isplaying;
#X text 213 22 Change on tempo;
#N canvas 777 235 663 436 final_tempo_sender 0;
#X obj 252 107 inlet;
#X obj 370 107 inlet;
#X obj 493 107 inlet;
#X text 494 71 tempo slider;
#X text 390 71 quantif bang;
#X text 295 70 click bang;
#X obj 203 261 s tempo_click_bang;
#X obj 341 260 s tempo_quantif_bang;
#X obj 490 261 s global_tempo_slider;
#X floatatom 148 65 5 0 0 0 - - - 0;
#X obj 148 43 r #abl_link_num_peers;
#X obj 252 166 spigot 1;
#X obj -237 107 inlet;
#X obj -141 107 inlet;
#X obj -55 107 inlet;
#X text -85 73 tempo slider;
#X text -189 73 quantif bang;
#X text -284 72 click bang;
#X text 320 42 ------ Standard tempo bang ------;
#X text -250 38 ------ Ableton Link tempo ------;
#X obj 106 146 tgl 15 0 empty empty empty 17 7 0 10 #fcfcfc #000000 #000000 0 1;
#X obj 194 120 == 0;
#X obj 193 151 tgl 15 0 empty empty empty 17 7 0 10 #fcfcfc #000000 #000000 0 1;
#X obj 370 166 spigot 1;
#X obj 490 185 spigot 1;
#X obj -237 161 spigot 1;
#X obj -141 161 spigot 1;
#X obj -55 161 spigot 1;
#X obj 117 118 >= 1;
#X obj 665 216 r metronome;
#X obj 31 105 inlet;
#X text 24 72 tempo value;
#X obj 31 161 spigot 0;
#X obj 4 255 extra/sv tempo;
#X obj 386 209 bng 16 250 50 0 empty empty empty 0 -8 0 10 #fcfcfc #000000 #000000;
#X connect 0 0 11 0;
#X connect 1 0 23 0;
#X connect 2 0 24 0;
#X connect 9 0 21 0;
#X connect 9 0 28 0;
#X connect 10 0 9 0;
#X connect 11 0 6 0;
#X connect 12 0 25 0;
#X connect 13 0 26 0;
#X connect 14 0 27 0;
#X connect 20 0 27 1;
#X connect 20 0 26 1;
#X connect 20 0 25 1;
#X connect 20 0 32 1;
#X connect 21 0 22 0;
#X connect 22 0 11 1;
#X connect 22 0 23 1;
#X connect 22 0 24 1;
#X connect 23 0 7 0;
#X connect 23 0 34 0;
#X connect 24 0 8 0;
#X connect 25 0 6 0;
#X connect 26 0 7 0;
#X connect 27 0 8 0;
#X connect 28 0 20 0;
#X connect 30 0 32 0;
#X connect 32 0 33 1;
#X restore 121 306 pd final_tempo_sender;
#X obj 203 182 metro 750;
#X obj 434 68 extra/sv tempo;
#X obj 541 207 extra/period_to_tempo;
#X floatatom 541 229 10 0 0 3 BPM - - 0;
#X obj 731 -102 cnv 15 100 120 empty empty DSP_ON 20 12 0 14 #e0e0e0 #404040 0;
#X obj 755 -57 loadbang;
#X msg 755 -26 \; pd dsp 1;
#X obj 732 35 cnv 15 100 120 empty empty METRONOME 20 12 0 14 #e0e0e0 #404040 0;
#X obj 750 114 metronome;
#X obj 736 67 r tempo_click_bang;
#X connect 4 0 8 0;
#X connect 4 1 7 0;
#X connect 5 0 10 0;
#X connect 6 0 16 0;
#X connect 7 0 14 0;
#X connect 8 0 14 0;
#X connect 9 0 13 5;
#X connect 9 1 13 6;
#X connect 10 0 13 4;
#X connect 10 1 9 0;
#X connect 11 0 4 0;
#X connect 14 0 5 0;
#X connect 15 0 14 1;
#X connect 15 0 6 0;
#X connect 15 0 9 1;
#X connect 16 0 17 0;
#X connect 19 0 20 0;
#X connect 23 0 22 0;
#X coords 0 659 1 658 1000 60 0;
