#N canvas 799 96 838 448 12;
#X obj 170 30 inlet~;
#X obj 168 244 outlet~;
#X obj 170 142 fx.rb_pitchshift~ 0;
#X floatatom 320 122 5 0 0 0 - - - 0;
#X obj 255 32 tgl 19 0 empty empty empty 0 -10 0 12 #fcfcfc #000000 #000000 0 1;
#X msg 254 72 @formant \$1;
#X msg 678 108 @smooth \$1;
#X obj 677 71 tgl 19 0 empty empty empty 0 -10 0 12 #fcfcfc #000000 #000000 0 1;
#X obj 473 195 extra/sv tempo;
#X floatatom 261 214 5 0 0 0 - - - 0;
#X floatatom 473 222 5 0 0 0 - - - 0;
#X obj 367 367 /;
#X obj 368 529 s semitones;
#X obj 400 134 r semitones;
#X obj 261 188 extra/sv 1_1_loop_tempo;
#X obj 474 248 extra/period_to_tempo;
#X obj 263 240 extra/period_to_tempo;
#X floatatom 263 272 5 0 0 0 - - - 0;
#X obj 367 464 log;
#X obj 367 488 * 12;
#X obj 481 306 t b f;
#X obj 367 391 t f b;
#X msg 386 426 2;
#X msg 782 111 @latency?;
#X obj 381 47 ui.tab @size 200 16 @receive "(null)" @send "(null)" @nosave 0 @pinned 0 @presetname "ui.tab.2" @background_color 0.93 0.93 0.93 1 @border_color 0.6 0.6 0.6 1 @label_color 0 0 0 1 @text_color 0 0 0 1 @active_color 0 0.75 1 1 @hover_color 0.5 0.5 0.5 1 @fontname "Helvetica" @fontweight "normal" @fontslant "roman" @fontsize 11 @label "(null)" @label_inner 0 @label_side "top" @label_align "left" @label_valign "top" @label_margins 0 0 @orientation 0 @toggle 0 @items "speed" "quality" "consistency";
#X msg 380 69 @quality \$1;
#X obj 374 -73 ui.tab @size 200 16 @receive "(null)" @send "(null)" @nosave 0 @pinned 0 @presetname "ui.tab.3" @background_color 0.93 0.93 0.93 1 @border_color 0.6 0.6 0.6 1 @label_color 0 0 0 1 @text_color 0 0 0 1 @active_color 0 0.75 1 1 @hover_color 0.5 0.5 0.5 1 @fontname "Helvetica" @fontweight "normal" @fontslant "roman" @fontsize 11 @label "(null)" @label_inner 0 @label_side "top" @label_align "left" @label_valign "top" @label_margins 0 0 @orientation 0 @toggle 0 @items "crisp" "mixed" "smooth";
#X msg 375 -54 @trans \$1;
#X obj 591 -74 ui.tab @size 200 16 @receive "(null)" @send "(null)" @nosave 0 @pinned 0 @presetname "ui.tab.0" @background_color 0.93 0.93 0.93 1 @border_color 0.6 0.6 0.6 1 @label_color 0 0 0 1 @text_color 0 0 0 1 @active_color 0 0.75 1 1 @hover_color 0.5 0.5 0.5 1 @fontname "Helvetica" @fontweight "normal" @fontslant "roman" @fontsize 11 @label "(null)" @label_inner 0 @label_side "top" @label_align "left" @label_valign "top" @label_margins 0 0 @orientation 0 @toggle 0 @items "standard" "short" "long";
#X msg 592 -55 @window \$1;
#X connect 0 0 2 0;
#X connect 2 0 1 0;
#X connect 3 0 2 1;
#X connect 4 0 5 0;
#X connect 5 0 2 0;
#X connect 6 0 2 0;
#X connect 7 0 6 0;
#X connect 8 0 10 0;
#X connect 9 0 16 0;
#X connect 10 0 15 0;
#X connect 11 0 21 0;
#X connect 13 0 3 0;
#X connect 14 0 9 0;
#X connect 15 0 20 0;
#X connect 16 0 17 0;
#X connect 17 0 11 0;
#X connect 18 0 19 0;
#X connect 19 0 12 0;
#X connect 20 0 11 0;
#X connect 20 1 11 1;
#X connect 21 0 18 0;
#X connect 21 1 22 0;
#X connect 22 0 18 1;
#X connect 23 0 2 0;
#X connect 24 0 25 0;
#X connect 25 0 2 0;
#X connect 26 0 27 0;
#X connect 27 0 2 0;
#X connect 28 0 29 0;
#X connect 29 0 2 0;
